<svg id="visual" viewBox="0 0 1920 1080" width="1920" height="1080" xmlns="http://www.w3.org/2000/svg" xmlns:xlink="http://www.w3.org/1999/xlink" version="1.1"><rect x="0" y="0" width="1920" height="1080" fill="#001220"></rect><path d="M0 312L53.3 318.2C106.7 324.3 213.3 336.7 320 358.5C426.7 380.3 533.3 411.7 640 409.7C746.7 407.7 853.3 372.3 960 371.8C1066.7 371.3 1173.3 405.7 1280 417.2C1386.7 428.7 1493.3 417.3 1600 418.3C1706.7 419.3 1813.3 432.7 1866.7 439.3L1920 446L1920 0L1866.7 0C1813.3 0 1706.7 0 1600 0C1493.3 0 1386.7 0 1280 0C1173.3 0 1066.7 0 960 0C853.3 0 746.7 0 640 0C533.3 0 426.7 0 320 0C213.3 0 106.7 0 53.3 0L0 0Z" fill="#031426"></path><path d="M0 282L53.3 285.7C106.7 289.3 213.3 296.7 320 312.7C426.7 328.7 533.3 353.3 640 359.5C746.7 365.7 853.3 353.3 960 338.8C1066.7 324.3 1173.3 307.7 1280 299.8C1386.7 292 1493.3 293 1600 289.2C1706.7 285.3 1813.3 276.7 1866.7 272.3L1920 268L1920 0L1866.7 0C1813.3 0 1706.7 0 1600 0C1493.3 0 1386.7 0 1280 0C1173.3 0 1066.7 0 960 0C853.3 0 746.7 0 640 0C533.3 0 426.7 0 320 0C213.3 0 106.7 0 53.3 0L0 0Z" fill="#172143"></path><path d="M0 311L53.3 309.7C106.7 308.3 213.3 305.7 320 296.5C426.7 287.3 533.3 271.7 640 267.5C746.7 263.3 853.3 270.7 960 261.3C1066.7 252 1173.3 226 1280 226C1386.7 226 1493.3 252 1600 255.5C1706.7 259 1813.3 240 1866.7 230.5L1920 221L1920 0L1866.7 0C1813.3 0 1706.7 0 1600 0C1493.3 0 1386.7 0 1280 0C1173.3 0 1066.7 0 960 0C853.3 0 746.7 0 640 0C533.3 0 426.7 0 320 0C213.3 0 106.7 0 53.3 0L0 0Z" fill="#3c295c"></path><path d="M0 230L53.3 228.2C106.7 226.3 213.3 222.7 320 219C426.7 215.3 533.3 211.7 640 203.2C746.7 194.7 853.3 181.3 960 187.8C1066.7 194.3 1173.3 220.7 1280 229C1386.7 237.3 1493.3 227.7 1600 223.8C1706.7 220 1813.3 222 1866.7 223L1920 224L1920 0L1866.7 0C1813.3 0 1706.7 0 1600 0C1493.3 0 1386.7 0 1280 0C1173.3 0 1066.7 0 960 0C853.3 0 746.7 0 640 0C533.3 0 426.7 0 320 0C213.3 0 106.7 0 53.3 0L0 0Z" fill="#692b6c"></path><path d="M0 127L53.3 121.2C106.7 115.3 213.3 103.7 320 106.7C426.7 109.7 533.3 127.3 640 138.8C746.7 150.3 853.3 155.7 960 157.2C1066.7 158.7 1173.3 156.3 1280 152.8C1386.7 149.3 1493.3 144.7 1600 143.5C1706.7 142.3 1813.3 144.7 1866.7 145.8L1920 147L1920 0L1866.7 0C1813.3 0 1706.7 0 1600 0C1493.3 0 1386.7 0 1280 0C1173.3 0 1066.7 0 960 0C853.3 0 746.7 0 640 0C533.3 0 426.7 0 320 0C213.3 0 106.7 0 53.3 0L0 0Z" fill="#992870"></path><path d="M0 65L53.3 64.2C106.7 63.3 213.3 61.7 320 59.7C426.7 57.7 533.3 55.3 640 52.5C746.7 49.7 853.3 46.3 960 55C1066.7 63.7 1173.3 84.3 1280 83.5C1386.7 82.7 1493.3 60.3 1600 55.3C1706.7 50.3 1813.3 62.7 1866.7 68.8L1920 75L1920 0L1866.7 0C1813.3 0 1706.7 0 1600 0C1493.3 0 1386.7 0 1280 0C1173.3 0 1066.7 0 960 0C853.3 0 746.7 0 640 0C533.3 0 426.7 0 320 0C213.3 0 106.7 0 53.3 0L0 0Z" fill="#c62368"></path></svg>