<svg xmlns="http://www.w3.org/2000/svg" version="1.1" xmlns:xlink="http://www.w3.org/1999/xlink" xmlns:svgjs="http://svgjs.com/svgjs" width="1920" height="1080" preserveAspectRatio="none" viewBox="0 0 1920 1080"><g mask="url(&quot;#SvgjsMask13523&quot;)" fill="none"><rect width="1920" height="1080" x="0" y="0" fill="url(#SvgjsLinearGradient13524)"></rect><use xlink:href="#SvgjsSymbol13531" x="0" y="0"></use><use xlink:href="#SvgjsSymbol13531" x="0" y="720"></use><use xlink:href="#SvgjsSymbol13531" x="720" y="0"></use><use xlink:href="#SvgjsSymbol13531" x="720" y="720"></use><use xlink:href="#SvgjsSymbol13531" x="1440" y="0"></use><use xlink:href="#SvgjsSymbol13531" x="1440" y="720"></use></g><defs><mask id="SvgjsMask13523"><rect width="1920" height="1080" fill="#ffffff"></rect></mask><linearGradient x1="50%" y1="100%" x2="50%" y2="0%" gradientUnits="userSpaceOnUse" id="SvgjsLinearGradient13524"><stop stop-color="rgba(14, 42, 71, 1)" offset="0"></stop><stop stop-color="rgba(0, 0, 0, 1)" offset="1"></stop></linearGradient><path d="M-1 0 a1 1 0 1 0 2 0 a1 1 0 1 0 -2 0z" id="SvgjsPath13528"></path><path d="M-3 0 a3 3 0 1 0 6 0 a3 3 0 1 0 -6 0z" id="SvgjsPath13529"></path><path d="M-5 0 a5 5 0 1 0 10 0 a5 5 0 1 0 -10 0z" id="SvgjsPath13527"></path><path d="M2 -2 L-2 2z" id="SvgjsPath13525"></path><path d="M6 -6 L-6 6z" id="SvgjsPath13526"></path><path d="M30 -30 L-30 30z" id="SvgjsPath13530"></path></defs><symbol id="SvgjsSymbol13531"><use xlink:href="#SvgjsPath13525" x="30" y="30" stroke="#1c538e"></use><use xlink:href="#SvgjsPath13526" x="30" y="90" stroke="rgba(255, 168, 34, 1)"></use><use xlink:href="#SvgjsPath13527" x="30" y="150" stroke="rgba(26, 192, 198, 1)"></use><use xlink:href="#SvgjsPath13526" x="30" y="210" stroke="rgba(26, 192, 198, 1)"></use><use xlink:href="#SvgjsPath13525" x="30" y="270" stroke="#1c538e"></use><use xlink:href="#SvgjsPath13527" x="30" y="330" stroke="rgba(26, 192, 198, 1)"></use><use xlink:href="#SvgjsPath13528" x="30" y="390" stroke="rgba(255, 97, 80, 1)"></use><use xlink:href="#SvgjsPath13527" x="30" y="450" stroke="rgba(255, 97, 80, 1)"></use><use xlink:href="#SvgjsPath13528" x="30" y="510" stroke="rgba(26, 192, 198, 1)"></use><use xlink:href="#SvgjsPath13528" x="30" y="570" stroke="rgba(255, 97, 80, 1)"></use><use xlink:href="#SvgjsPath13528" x="30" y="630" stroke="rgba(26, 192, 198, 1)"></use><use xlink:href="#SvgjsPath13526" x="30" y="690" stroke="rgba(255, 168, 34, 1)"></use><use xlink:href="#SvgjsPath13525" x="90" y="30" stroke="rgba(255, 168, 34, 1)"></use><use xlink:href="#SvgjsPath13527" x="90" y="90" stroke="rgba(26, 192, 198, 1)"></use><use xlink:href="#SvgjsPath13529" x="90" y="150" stroke="rgba(26, 192, 198, 1)"></use><use xlink:href="#SvgjsPath13527" x="90" y="210" stroke="rgba(26, 192, 198, 1)"></use><use xlink:href="#SvgjsPath13527" x="90" y="270" stroke="rgba(26, 192, 198, 1)"></use><use xlink:href="#SvgjsPath13528" x="90" y="330" stroke="rgba(26, 192, 198, 1)"></use><use xlink:href="#SvgjsPath13527" x="90" y="390" stroke="#1c538e"></use><use xlink:href="#SvgjsPath13526" x="90" y="450" stroke="#1c538e"></use><use xlink:href="#SvgjsPath13527" x="90" y="510" stroke="rgba(255, 97, 80, 1)"></use><use xlink:href="#SvgjsPath13525" x="90" y="570" stroke="rgba(255, 97, 80, 1)"></use><use xlink:href="#SvgjsPath13526" x="90" y="630" stroke="#1c538e"></use><use xlink:href="#SvgjsPath13526" x="90" y="690" stroke="rgba(255, 97, 80, 1)"></use><use xlink:href="#SvgjsPath13526" x="150" y="30" stroke="rgba(255, 97, 80, 1)"></use><use xlink:href="#SvgjsPath13529" x="150" y="90" stroke="rgba(255, 97, 80, 1)"></use><use xlink:href="#SvgjsPath13527" x="150" y="150" stroke="#1c538e"></use><use xlink:href="#SvgjsPath13527" x="150" y="210" stroke="rgba(255, 97, 80, 1)"></use><use xlink:href="#SvgjsPath13526" x="150" y="270" stroke="#1c538e"></use><use xlink:href="#SvgjsPath13527" x="150" y="330" stroke="rgba(255, 97, 80, 1)"></use><use xlink:href="#SvgjsPath13527" x="150" y="390" stroke="rgba(255, 97, 80, 1)"></use><use xlink:href="#SvgjsPath13526" x="150" y="450" stroke="rgba(255, 97, 80, 1)"></use><use xlink:href="#SvgjsPath13526" x="150" y="510" stroke="rgba(255, 97, 80, 1)"></use><use xlink:href="#SvgjsPath13526" x="150" y="570" stroke="rgba(26, 192, 198, 1)"></use><use xlink:href="#SvgjsPath13525" x="150" y="630" stroke="rgba(255, 168, 34, 1)"></use><use xlink:href="#SvgjsPath13529" x="150" y="690" stroke="rgba(255, 168, 34, 1)"></use><use xlink:href="#SvgjsPath13527" x="210" y="30" stroke="rgba(26, 192, 198, 1)"></use><use xlink:href="#SvgjsPath13526" x="210" y="90" stroke="rgba(255, 168, 34, 1)"></use><use xlink:href="#SvgjsPath13527" x="210" y="150" stroke="rgba(26, 192, 198, 1)"></use><use xlink:href="#SvgjsPath13526" x="210" y="210" stroke="rgba(255, 168, 34, 1)"></use><use xlink:href="#SvgjsPath13525" x="210" y="270" stroke="rgba(255, 97, 80, 1)"></use><use xlink:href="#SvgjsPath13527" x="210" y="330" stroke="#1c538e"></use><use xlink:href="#SvgjsPath13527" x="210" y="390" stroke="rgba(255, 97, 80, 1)"></use><use xlink:href="#SvgjsPath13525" x="210" y="450" stroke="rgba(26, 192, 198, 1)"></use><use xlink:href="#SvgjsPath13530" x="210" y="510" stroke="rgba(255, 97, 80, 1)" stroke-width="3"></use><use xlink:href="#SvgjsPath13527" x="210" y="570" stroke="rgba(255, 168, 34, 1)"></use><use xlink:href="#SvgjsPath13526" x="210" y="630" stroke="rgba(255, 97, 80, 1)"></use><use xlink:href="#SvgjsPath13525" x="210" y="690" stroke="rgba(255, 168, 34, 1)"></use><use xlink:href="#SvgjsPath13528" x="270" y="30" stroke="#1c538e"></use><use xlink:href="#SvgjsPath13526" x="270" y="90" stroke="rgba(255, 97, 80, 1)"></use><use xlink:href="#SvgjsPath13530" x="270" y="150" stroke="rgba(26, 192, 198, 1)" stroke-width="3"></use><use xlink:href="#SvgjsPath13527" x="270" y="210" stroke="rgba(255, 168, 34, 1)"></use><use xlink:href="#SvgjsPath13529" x="270" y="270" stroke="#1c538e"></use><use xlink:href="#SvgjsPath13526" x="270" y="330" stroke="rgba(255, 168, 34, 1)"></use><use xlink:href="#SvgjsPath13528" x="270" y="390" stroke="rgba(255, 168, 34, 1)"></use><use xlink:href="#SvgjsPath13526" x="270" y="450" stroke="rgba(26, 192, 198, 1)"></use><use xlink:href="#SvgjsPath13527" x="270" y="510" stroke="rgba(26, 192, 198, 1)"></use><use xlink:href="#SvgjsPath13529" x="270" y="570" stroke="rgba(255, 97, 80, 1)"></use><use xlink:href="#SvgjsPath13528" x="270" y="630" stroke="#1c538e"></use><use xlink:href="#SvgjsPath13527" x="270" y="690" stroke="rgba(255, 168, 34, 1)"></use><use xlink:href="#SvgjsPath13529" x="330" y="30" stroke="#1c538e"></use><use xlink:href="#SvgjsPath13530" x="330" y="90" stroke="rgba(255, 97, 80, 1)" stroke-width="3"></use><use xlink:href="#SvgjsPath13527" x="330" y="150" stroke="#1c538e"></use><use xlink:href="#SvgjsPath13525" x="330" y="210" stroke="#1c538e"></use><use xlink:href="#SvgjsPath13527" x="330" y="270" stroke="rgba(255, 168, 34, 1)"></use><use xlink:href="#SvgjsPath13525" x="330" y="330" stroke="#1c538e"></use><use xlink:href="#SvgjsPath13527" x="330" y="390" stroke="#1c538e"></use><use xlink:href="#SvgjsPath13526" x="330" y="450" stroke="rgba(255, 97, 80, 1)"></use><use xlink:href="#SvgjsPath13527" x="330" y="510" stroke="rgba(255, 168, 34, 1)"></use><use xlink:href="#SvgjsPath13526" x="330" y="570" stroke="rgba(255, 97, 80, 1)"></use><use xlink:href="#SvgjsPath13526" x="330" y="630" stroke="#1c538e"></use><use xlink:href="#SvgjsPath13526" x="330" y="690" stroke="rgba(26, 192, 198, 1)"></use><use xlink:href="#SvgjsPath13530" x="390" y="30" stroke="rgba(26, 192, 198, 1)" stroke-width="3"></use><use xlink:href="#SvgjsPath13527" x="390" y="90" stroke="rgba(26, 192, 198, 1)"></use><use xlink:href="#SvgjsPath13526" x="390" y="150" stroke="rgba(26, 192, 198, 1)"></use><use xlink:href="#SvgjsPath13529" x="390" y="210" stroke="rgba(255, 97, 80, 1)"></use><use xlink:href="#SvgjsPath13528" x="390" y="270" stroke="rgba(26, 192, 198, 1)"></use><use xlink:href="#SvgjsPath13526" x="390" y="330" stroke="rgba(255, 97, 80, 1)"></use><use xlink:href="#SvgjsPath13527" x="390" y="390" stroke="rgba(255, 168, 34, 1)"></use><use xlink:href="#SvgjsPath13525" x="390" y="450" stroke="rgba(26, 192, 198, 1)"></use><use xlink:href="#SvgjsPath13528" x="390" y="510" stroke="rgba(255, 97, 80, 1)"></use><use xlink:href="#SvgjsPath13526" x="390" y="570" stroke="rgba(255, 168, 34, 1)"></use><use xlink:href="#SvgjsPath13526" x="390" y="630" stroke="rgba(255, 97, 80, 1)"></use><use xlink:href="#SvgjsPath13529" x="390" y="690" stroke="#1c538e"></use><use xlink:href="#SvgjsPath13527" x="450" y="30" stroke="#1c538e"></use><use xlink:href="#SvgjsPath13527" x="450" y="90" stroke="rgba(255, 97, 80, 1)"></use><use xlink:href="#SvgjsPath13526" x="450" y="150" stroke="rgba(26, 192, 198, 1)"></use><use xlink:href="#SvgjsPath13529" x="450" y="210" stroke="rgba(255, 97, 80, 1)"></use><use xlink:href="#SvgjsPath13527" x="450" y="270" stroke="#1c538e"></use><use xlink:href="#SvgjsPath13528" x="450" y="330" stroke="rgba(26, 192, 198, 1)"></use><use xlink:href="#SvgjsPath13525" x="450" y="390" stroke="#1c538e"></use><use xlink:href="#SvgjsPath13527" x="450" y="450" stroke="rgba(255, 168, 34, 1)"></use><use xlink:href="#SvgjsPath13526" x="450" y="510" stroke="rgba(255, 97, 80, 1)"></use><use xlink:href="#SvgjsPath13525" x="450" y="570" stroke="rgba(255, 168, 34, 1)"></use><use xlink:href="#SvgjsPath13527" x="450" y="630" stroke="rgba(26, 192, 198, 1)"></use><use xlink:href="#SvgjsPath13527" x="450" y="690" stroke="rgba(255, 97, 80, 1)"></use><use xlink:href="#SvgjsPath13528" x="510" y="30" stroke="rgba(255, 97, 80, 1)"></use><use xlink:href="#SvgjsPath13526" x="510" y="90" stroke="#1c538e"></use><use xlink:href="#SvgjsPath13527" x="510" y="150" stroke="rgba(255, 168, 34, 1)"></use><use xlink:href="#SvgjsPath13527" x="510" y="210" stroke="#1c538e"></use><use xlink:href="#SvgjsPath13527" x="510" y="270" stroke="rgba(255, 168, 34, 1)"></use><use xlink:href="#SvgjsPath13529" x="510" y="330" stroke="rgba(26, 192, 198, 1)"></use><use xlink:href="#SvgjsPath13529" x="510" y="390" stroke="rgba(255, 168, 34, 1)"></use><use xlink:href="#SvgjsPath13525" x="510" y="450" stroke="rgba(255, 168, 34, 1)"></use><use xlink:href="#SvgjsPath13527" x="510" y="510" stroke="#1c538e"></use><use xlink:href="#SvgjsPath13525" x="510" y="570" stroke="rgba(255, 168, 34, 1)"></use><use xlink:href="#SvgjsPath13527" x="510" y="630" stroke="rgba(255, 97, 80, 1)"></use><use xlink:href="#SvgjsPath13526" x="510" y="690" stroke="#1c538e"></use><use xlink:href="#SvgjsPath13527" x="570" y="30" stroke="#1c538e"></use><use xlink:href="#SvgjsPath13527" x="570" y="90" stroke="rgba(255, 168, 34, 1)"></use><use xlink:href="#SvgjsPath13529" x="570" y="150" stroke="rgba(255, 168, 34, 1)"></use><use xlink:href="#SvgjsPath13526" x="570" y="210" stroke="rgba(26, 192, 198, 1)"></use><use xlink:href="#SvgjsPath13526" x="570" y="270" stroke="rgba(255, 168, 34, 1)"></use><use xlink:href="#SvgjsPath13527" x="570" y="330" stroke="rgba(255, 97, 80, 1)"></use><use xlink:href="#SvgjsPath13529" x="570" y="390" stroke="rgba(255, 168, 34, 1)"></use><use xlink:href="#SvgjsPath13527" x="570" y="450" stroke="#1c538e"></use><use xlink:href="#SvgjsPath13525" x="570" y="510" stroke="rgba(255, 97, 80, 1)"></use><use xlink:href="#SvgjsPath13530" x="570" y="570" stroke="#1c538e" stroke-width="3"></use><use xlink:href="#SvgjsPath13526" x="570" y="630" stroke="rgba(255, 168, 34, 1)"></use><use xlink:href="#SvgjsPath13528" x="570" y="690" stroke="rgba(255, 97, 80, 1)"></use><use xlink:href="#SvgjsPath13526" x="630" y="30" stroke="rgba(255, 168, 34, 1)"></use><use xlink:href="#SvgjsPath13527" x="630" y="90" stroke="rgba(255, 168, 34, 1)"></use><use xlink:href="#SvgjsPath13526" x="630" y="150" stroke="rgba(255, 168, 34, 1)"></use><use xlink:href="#SvgjsPath13526" x="630" y="210" stroke="rgba(255, 168, 34, 1)"></use><use xlink:href="#SvgjsPath13527" x="630" y="270" stroke="rgba(255, 168, 34, 1)"></use><use xlink:href="#SvgjsPath13526" x="630" y="330" stroke="#1c538e"></use><use xlink:href="#SvgjsPath13526" x="630" y="390" stroke="rgba(255, 168, 34, 1)"></use><use xlink:href="#SvgjsPath13526" x="630" y="450" stroke="rgba(26, 192, 198, 1)"></use><use xlink:href="#SvgjsPath13528" x="630" y="510" stroke="#1c538e"></use><use xlink:href="#SvgjsPath13527" x="630" y="570" stroke="rgba(26, 192, 198, 1)"></use><use xlink:href="#SvgjsPath13526" x="630" y="630" stroke="rgba(255, 97, 80, 1)"></use><use xlink:href="#SvgjsPath13525" x="630" y="690" stroke="rgba(255, 168, 34, 1)"></use><use xlink:href="#SvgjsPath13526" x="690" y="30" stroke="rgba(255, 97, 80, 1)"></use><use xlink:href="#SvgjsPath13527" x="690" y="90" stroke="#1c538e"></use><use xlink:href="#SvgjsPath13530" x="690" y="150" stroke="rgba(255, 97, 80, 1)" stroke-width="3"></use><use xlink:href="#SvgjsPath13528" x="690" y="210" stroke="rgba(26, 192, 198, 1)"></use><use xlink:href="#SvgjsPath13526" x="690" y="270" stroke="rgba(26, 192, 198, 1)"></use><use xlink:href="#SvgjsPath13527" x="690" y="330" stroke="rgba(255, 97, 80, 1)"></use><use xlink:href="#SvgjsPath13527" x="690" y="390" stroke="#1c538e"></use><use xlink:href="#SvgjsPath13526" x="690" y="450" stroke="rgba(26, 192, 198, 1)"></use><use xlink:href="#SvgjsPath13527" x="690" y="510" stroke="rgba(26, 192, 198, 1)"></use><use xlink:href="#SvgjsPath13526" x="690" y="570" stroke="#1c538e"></use><use xlink:href="#SvgjsPath13529" x="690" y="630" stroke="#1c538e"></use><use xlink:href="#SvgjsPath13526" x="690" y="690" stroke="rgba(255, 97, 80, 1)"></use></symbol></svg>